<mxfile host="app.diagrams.net" agent="Mozilla/5.0 (Macintosh; Intel Mac OS X 10_15_7) AppleWebKit/605.1.15 (KHTML, like Gecko) Version/18.0.1 Safari/605.1.15" version="24.7.17">
  <diagram name="Page-1" id="Qmsqfayur9VRvceG9xc0">
    <mxGraphModel dx="1563" dy="932" grid="1" gridSize="10" guides="1" tooltips="1" connect="1" arrows="1" fold="1" page="1" pageScale="1" pageWidth="1654" pageHeight="2336" math="0" shadow="0">
      <root>
        <mxCell id="0" />
        <mxCell id="1" parent="0" />
        <mxCell id="iy4lIQVxWlbtmkeTVr29-3" value="" style="html=1;verticalLabelPosition=bottom;labelBackgroundColor=#ffffff;verticalAlign=top;shadow=0;dashed=0;strokeWidth=1;shape=mxgraph.ios7.misc.iphone;strokeColor=#c0c0c0;" vertex="1" parent="1">
          <mxGeometry x="70" y="80" width="200" height="400" as="geometry" />
        </mxCell>
        <mxCell id="iy4lIQVxWlbtmkeTVr29-4" value="" style="html=1;verticalLabelPosition=bottom;labelBackgroundColor=#ffffff;verticalAlign=top;shadow=0;dashed=0;strokeWidth=1;shape=mxgraph.ios7.misc.iphone;strokeColor=#c0c0c0;" vertex="1" parent="1">
          <mxGeometry x="330" y="80" width="200" height="400" as="geometry" />
        </mxCell>
        <mxCell id="iy4lIQVxWlbtmkeTVr29-5" value="" style="html=1;verticalLabelPosition=bottom;labelBackgroundColor=#ffffff;verticalAlign=top;shadow=0;dashed=0;strokeWidth=1;shape=mxgraph.ios7.misc.iphone;strokeColor=#c0c0c0;" vertex="1" parent="1">
          <mxGeometry x="580" y="80" width="200" height="400" as="geometry" />
        </mxCell>
        <mxCell id="iy4lIQVxWlbtmkeTVr29-6" value="Mark Starting Line Position" style="text;html=1;align=center;verticalAlign=middle;whiteSpace=wrap;rounded=0;" vertex="1" parent="1">
          <mxGeometry x="125" y="230" width="90" height="30" as="geometry" />
        </mxCell>
        <mxCell id="iy4lIQVxWlbtmkeTVr29-7" value="Race Settings" style="text;html=1;align=center;verticalAlign=middle;whiteSpace=wrap;rounded=0;" vertex="1" parent="1">
          <mxGeometry x="125" y="280" width="90" height="30" as="geometry" />
        </mxCell>
        <mxCell id="iy4lIQVxWlbtmkeTVr29-10" value="Mark RC" style="text;html=1;align=center;verticalAlign=middle;whiteSpace=wrap;rounded=0;" vertex="1" parent="1">
          <mxGeometry x="385" y="210" width="90" height="30" as="geometry" />
        </mxCell>
        <mxCell id="iy4lIQVxWlbtmkeTVr29-11" value="Mark Pin" style="text;html=1;align=center;verticalAlign=middle;whiteSpace=wrap;rounded=0;" vertex="1" parent="1">
          <mxGeometry x="385" y="280" width="90" height="30" as="geometry" />
        </mxCell>
        <mxCell id="iy4lIQVxWlbtmkeTVr29-12" value="" style="endArrow=classic;html=1;rounded=0;exitX=1.005;exitY=0.423;exitDx=0;exitDy=0;exitPerimeter=0;" edge="1" parent="1" source="iy4lIQVxWlbtmkeTVr29-3">
          <mxGeometry width="50" height="50" relative="1" as="geometry">
            <mxPoint x="410" y="360" as="sourcePoint" />
            <mxPoint x="320" y="249" as="targetPoint" />
          </mxGeometry>
        </mxCell>
        <mxCell id="iy4lIQVxWlbtmkeTVr29-14" value="" style="rounded=1;whiteSpace=wrap;html=1;fillColor=none;" vertex="1" parent="1">
          <mxGeometry x="110" y="210" width="120" height="60" as="geometry" />
        </mxCell>
        <mxCell id="iy4lIQVxWlbtmkeTVr29-15" value="" style="rounded=1;whiteSpace=wrap;html=1;fillColor=none;" vertex="1" parent="1">
          <mxGeometry x="110" y="280" width="120" height="60" as="geometry" />
        </mxCell>
        <mxCell id="iy4lIQVxWlbtmkeTVr29-16" value="" style="rounded=1;whiteSpace=wrap;html=1;fillColor=none;" vertex="1" parent="1">
          <mxGeometry x="370" y="195" width="120" height="60" as="geometry" />
        </mxCell>
        <mxCell id="iy4lIQVxWlbtmkeTVr29-17" value="" style="rounded=1;whiteSpace=wrap;html=1;fillColor=none;" vertex="1" parent="1">
          <mxGeometry x="370" y="265" width="120" height="60" as="geometry" />
        </mxCell>
        <mxCell id="iy4lIQVxWlbtmkeTVr29-18" value="" style="endArrow=classic;html=1;rounded=0;exitX=0.985;exitY=0.39;exitDx=0;exitDy=0;exitPerimeter=0;" edge="1" parent="1" source="iy4lIQVxWlbtmkeTVr29-4">
          <mxGeometry width="50" height="50" relative="1" as="geometry">
            <mxPoint x="480" y="380" as="sourcePoint" />
            <mxPoint x="580" y="236" as="targetPoint" />
          </mxGeometry>
        </mxCell>
        <mxCell id="iy4lIQVxWlbtmkeTVr29-19" value="" style="rounded=1;whiteSpace=wrap;html=1;fillColor=none;" vertex="1" parent="1">
          <mxGeometry x="620" y="195" width="120" height="60" as="geometry" />
        </mxCell>
        <mxCell id="iy4lIQVxWlbtmkeTVr29-20" value="" style="rounded=1;whiteSpace=wrap;html=1;fillColor=none;" vertex="1" parent="1">
          <mxGeometry x="620" y="295" width="120" height="60" as="geometry" />
        </mxCell>
        <mxCell id="iy4lIQVxWlbtmkeTVr29-21" value="x°xx&#39;xx&quot; N/S x°xx&#39;xx&quot; W/E" style="text;align=center;verticalAlign=middle;rounded=0;fontColor=default;whiteSpace=wrap;" vertex="1" parent="1">
          <mxGeometry x="610" y="160" width="140" height="30" as="geometry" />
        </mxCell>
        <mxCell id="iy4lIQVxWlbtmkeTVr29-22" value="x°xx&#39;xx&quot; N/S x°xx&#39;xx&quot; W/E" style="text;align=center;verticalAlign=middle;rounded=0;fontColor=default;whiteSpace=wrap;" vertex="1" parent="1">
          <mxGeometry x="610" y="260" width="140" height="30" as="geometry" />
        </mxCell>
        <mxCell id="iy4lIQVxWlbtmkeTVr29-23" value="Mark RC" style="text;html=1;align=center;verticalAlign=middle;whiteSpace=wrap;rounded=0;" vertex="1" parent="1">
          <mxGeometry x="650" y="210" width="60" height="30" as="geometry" />
        </mxCell>
        <mxCell id="iy4lIQVxWlbtmkeTVr29-24" value="Mark Pin" style="text;html=1;align=center;verticalAlign=middle;whiteSpace=wrap;rounded=0;" vertex="1" parent="1">
          <mxGeometry x="650" y="310" width="60" height="30" as="geometry" />
        </mxCell>
        <mxCell id="iy4lIQVxWlbtmkeTVr29-25" value="Done" style="rounded=1;whiteSpace=wrap;html=1;" vertex="1" parent="1">
          <mxGeometry x="390" y="370" width="80" height="40" as="geometry" />
        </mxCell>
        <mxCell id="iy4lIQVxWlbtmkeTVr29-27" value="Done" style="rounded=1;whiteSpace=wrap;html=1;" vertex="1" parent="1">
          <mxGeometry x="640" y="370" width="80" height="40" as="geometry" />
        </mxCell>
        <mxCell id="iy4lIQVxWlbtmkeTVr29-28" value="" style="endArrow=classic;html=1;rounded=0;exitX=1.008;exitY=0.601;exitDx=0;exitDy=0;exitPerimeter=0;entryX=-0.013;entryY=0.604;entryDx=0;entryDy=0;entryPerimeter=0;" edge="1" parent="1" source="iy4lIQVxWlbtmkeTVr29-4" target="iy4lIQVxWlbtmkeTVr29-5">
          <mxGeometry width="50" height="50" relative="1" as="geometry">
            <mxPoint x="537" y="246" as="sourcePoint" />
            <mxPoint x="590" y="246" as="targetPoint" />
          </mxGeometry>
        </mxCell>
        <mxCell id="iy4lIQVxWlbtmkeTVr29-29" value="" style="html=1;verticalLabelPosition=bottom;labelBackgroundColor=#ffffff;verticalAlign=top;shadow=0;dashed=0;strokeWidth=1;shape=mxgraph.ios7.misc.iphone;strokeColor=#c0c0c0;" vertex="1" parent="1">
          <mxGeometry x="840" y="75" width="200" height="400" as="geometry" />
        </mxCell>
        <mxCell id="iy4lIQVxWlbtmkeTVr29-30" value="" style="endArrow=classic;html=1;rounded=0;exitX=1.023;exitY=0.801;exitDx=0;exitDy=0;exitPerimeter=0;entryX=0.03;entryY=0.817;entryDx=0;entryDy=0;entryPerimeter=0;" edge="1" parent="1" source="iy4lIQVxWlbtmkeTVr29-5" target="iy4lIQVxWlbtmkeTVr29-29">
          <mxGeometry width="50" height="50" relative="1" as="geometry">
            <mxPoint x="542" y="330" as="sourcePoint" />
            <mxPoint x="810" y="390" as="targetPoint" />
            <Array as="points">
              <mxPoint x="810" y="400" />
            </Array>
          </mxGeometry>
        </mxCell>
        <mxCell id="iy4lIQVxWlbtmkeTVr29-31" value="5:00" style="text;html=1;align=center;verticalAlign=middle;whiteSpace=wrap;rounded=0;" vertex="1" parent="1">
          <mxGeometry x="910" y="165" width="60" height="30" as="geometry" />
        </mxCell>
        <mxCell id="iy4lIQVxWlbtmkeTVr29-32" value="Start Timer" style="text;html=1;align=center;verticalAlign=middle;whiteSpace=wrap;rounded=0;" vertex="1" parent="1">
          <mxGeometry x="910" y="205" width="60" height="30" as="geometry" />
        </mxCell>
        <mxCell id="iy4lIQVxWlbtmkeTVr29-33" value="COG: 45&lt;span style=&quot;caret-color: rgb(191, 191, 191); color: rgb(191, 191, 191); font-family: Arial, sans-serif; font-size: 14px; text-align: left; background-color: rgb(31, 31, 31);&quot;&gt;°&lt;/span&gt;" style="text;html=1;align=center;verticalAlign=middle;whiteSpace=wrap;rounded=0;" vertex="1" parent="1">
          <mxGeometry x="910" y="335" width="60" height="30" as="geometry" />
        </mxCell>
        <mxCell id="iy4lIQVxWlbtmkeTVr29-34" value="SOG: 4,5knt" style="text;html=1;align=center;verticalAlign=middle;whiteSpace=wrap;rounded=0;" vertex="1" parent="1">
          <mxGeometry x="910" y="365" width="70" height="30" as="geometry" />
        </mxCell>
        <mxCell id="iy4lIQVxWlbtmkeTVr29-35" value="Distance to line: 100m" style="text;html=1;align=center;verticalAlign=middle;whiteSpace=wrap;rounded=0;" vertex="1" parent="1">
          <mxGeometry x="890" y="305" width="100" height="30" as="geometry" />
        </mxCell>
        <mxCell id="iy4lIQVxWlbtmkeTVr29-37" value="" style="endArrow=none;html=1;rounded=0;entryX=0.2;entryY=0.5;entryDx=0;entryDy=0;entryPerimeter=0;" edge="1" parent="1" source="iy4lIQVxWlbtmkeTVr29-40" target="iy4lIQVxWlbtmkeTVr29-29">
          <mxGeometry width="50" height="50" relative="1" as="geometry">
            <mxPoint x="990" y="275" as="sourcePoint" />
            <mxPoint x="1010" y="270" as="targetPoint" />
            <Array as="points" />
          </mxGeometry>
        </mxCell>
        <mxCell id="iy4lIQVxWlbtmkeTVr29-38" value="" style="verticalLabelPosition=bottom;html=1;verticalAlign=top;strokeWidth=2;shape=mxgraph.lean_mapping.boat_shipment;align=center;" vertex="1" parent="1">
          <mxGeometry x="970" y="250" width="40" height="35" as="geometry" />
        </mxCell>
        <mxCell id="iy4lIQVxWlbtmkeTVr29-41" value="" style="endArrow=none;html=1;rounded=0;entryX=0.2;entryY=0.5;entryDx=0;entryDy=0;entryPerimeter=0;" edge="1" parent="1" target="iy4lIQVxWlbtmkeTVr29-40">
          <mxGeometry width="50" height="50" relative="1" as="geometry">
            <mxPoint x="990" y="275" as="sourcePoint" />
            <mxPoint x="880" y="275" as="targetPoint" />
            <Array as="points" />
          </mxGeometry>
        </mxCell>
        <mxCell id="iy4lIQVxWlbtmkeTVr29-40" value="" style="html=1;verticalLabelPosition=bottom;labelBackgroundColor=#ffffff;verticalAlign=top;shadow=0;dashed=0;strokeWidth=2;shape=mxgraph.ios7.misc.circle;strokeColor=#222222;fillColor=none;" vertex="1" parent="1">
          <mxGeometry x="870" y="270" width="12" height="12" as="geometry" />
        </mxCell>
        <mxCell id="iy4lIQVxWlbtmkeTVr29-42" value="" style="html=1;verticalLabelPosition=bottom;labelBackgroundColor=#ffffff;verticalAlign=top;shadow=0;dashed=0;strokeWidth=1;shape=mxgraph.ios7.misc.iphone;strokeColor=#c0c0c0;" vertex="1" parent="1">
          <mxGeometry x="1140" y="67.5" width="200" height="400" as="geometry" />
        </mxCell>
        <mxCell id="iy4lIQVxWlbtmkeTVr29-45" value="Stop Timer" style="text;html=1;align=center;verticalAlign=middle;whiteSpace=wrap;rounded=0;" vertex="1" parent="1">
          <mxGeometry x="1205" y="202.5" width="60" height="30" as="geometry" />
        </mxCell>
        <mxCell id="iy4lIQVxWlbtmkeTVr29-47" value="" style="verticalLabelPosition=bottom;html=1;verticalAlign=top;strokeWidth=2;shape=mxgraph.lean_mapping.boat_shipment;align=center;" vertex="1" parent="1">
          <mxGeometry x="1275" y="247.5" width="40" height="35" as="geometry" />
        </mxCell>
        <mxCell id="iy4lIQVxWlbtmkeTVr29-48" value="" style="endArrow=none;html=1;rounded=0;entryX=0.2;entryY=0.5;entryDx=0;entryDy=0;entryPerimeter=0;" edge="1" parent="1">
          <mxGeometry width="50" height="50" relative="1" as="geometry">
            <mxPoint x="1303" y="272.5" as="sourcePoint" />
            <mxPoint x="1185" y="273.5" as="targetPoint" />
            <Array as="points" />
          </mxGeometry>
        </mxCell>
        <mxCell id="iy4lIQVxWlbtmkeTVr29-49" value="" style="html=1;verticalLabelPosition=bottom;labelBackgroundColor=#ffffff;verticalAlign=top;shadow=0;dashed=0;strokeWidth=2;shape=mxgraph.ios7.misc.circle;strokeColor=#222222;fillColor=none;" vertex="1" parent="1">
          <mxGeometry x="1173" y="265" width="12" height="12" as="geometry" />
        </mxCell>
        <mxCell id="iy4lIQVxWlbtmkeTVr29-51" value="COG: 45&lt;span style=&quot;caret-color: rgb(191, 191, 191); color: rgb(191, 191, 191); font-family: Arial, sans-serif; font-size: 14px; text-align: left; background-color: rgb(31, 31, 31);&quot;&gt;°&lt;/span&gt;" style="text;html=1;align=center;verticalAlign=middle;whiteSpace=wrap;rounded=0;" vertex="1" parent="1">
          <mxGeometry x="1205" y="327.5" width="60" height="30" as="geometry" />
        </mxCell>
        <mxCell id="iy4lIQVxWlbtmkeTVr29-52" value="SOG: 4,5knt" style="text;html=1;align=center;verticalAlign=middle;whiteSpace=wrap;rounded=0;" vertex="1" parent="1">
          <mxGeometry x="1205" y="357.5" width="70" height="30" as="geometry" />
        </mxCell>
        <mxCell id="iy4lIQVxWlbtmkeTVr29-53" value="Distance to line: 70m" style="text;html=1;align=center;verticalAlign=middle;whiteSpace=wrap;rounded=0;" vertex="1" parent="1">
          <mxGeometry x="1185" y="297.5" width="100" height="30" as="geometry" />
        </mxCell>
        <mxCell id="iy4lIQVxWlbtmkeTVr29-54" value="" style="endArrow=classic;html=1;rounded=0;" edge="1" parent="1">
          <mxGeometry width="50" height="50" relative="1" as="geometry">
            <mxPoint x="1043" y="220" as="sourcePoint" />
            <mxPoint x="1140" y="220" as="targetPoint" />
          </mxGeometry>
        </mxCell>
        <mxCell id="iy4lIQVxWlbtmkeTVr29-55" value="4:25" style="text;html=1;align=center;verticalAlign=middle;whiteSpace=wrap;rounded=0;" vertex="1" parent="1">
          <mxGeometry x="1205" y="165" width="60" height="30" as="geometry" />
        </mxCell>
      </root>
    </mxGraphModel>
  </diagram>
</mxfile>
